# xmcd CD database file
#
# Track frame offsets:
#	150
#	23981
#	52143
#	74403
#	107485
#	136096
#	172497
#	194009
#	210569
#	236890
#	261529
#
# Disc length: 3774 seconds
#
# Revision: 0
# Processed by: cddbd v1.5.2PL0 Copyright (c) Steve Scherf et al.
# Submitted via: CDex 2.12
#
DISCID=b30ebc0b
DTITLE=MAG Trio - Pensieri Circolari
DYEAR=2004
DGENRE=Jazz
TTITLE0=Dettagli Minimali
TTITLE1=Once upon a long ago
TTITLE2=Esterno notte
TTITLE3=Hudson
TTITLE4=Catene d'acqua
TTITLE5=Countdown
TTITLE6=C'era una volta in America
TTITLE7=Funkallero
TTITLE8=Pensieri circolari
TTITLE9=Message in a bottle
TTITLE10=Grandi speranze
EXTD=YEAR: 2004
EXTT0=
EXTT1=
EXTT2=
EXTT3=
EXTT4=
EXTT5=
EXTT6=
EXTT7=
EXTT8=
EXTT9=
EXTT10=
PLAYORDER=
